<?xml version="1.0" standalone="no"?> <!DOCTYPE svg PUBLIC "-//W3C//DTD SVG 20010904//EN" "http://www.w3.org/TR/2001/REC-SVG-20010904/DTD/svg10.dtd"> <svg version="1.0" xmlns="http://www.w3.org/2000/svg" width="1500.000000pt" height="1500.000000pt" viewBox="0 0 1500.000000 1500.000000" preserveAspectRatio="xMidYMid meet"> <g transform="translate(0.000000,1500.000000) scale(0.100000,-0.100000)" fill="#ffffff" stroke="none"> <path d="M4365 12149 c-129 -17 -260 -41 -300 -55 -23 -8 -53 -14 -67 -14 -15 0 -42 -6 -60 -14 -18 -8 -60 -22 -93 -31 -113 -33 -193 -65 -365 -147 -52 -25 -102 -49 -110 -52 -8 -3 -28 -15 -45 -26 -16 -11 -37 -23 -45 -27 -8 -4 -43 -26 -78 -50 -35 -24 -65 -43 -68 -43 -3 0 -58 -40 -122 -89 l-117 -88 -145 -149 c-157 -160 -297 -336 -397 -499 -7 -11 -15 -27 -19 -35 -4 -8 -18 -29 -30 -45 -12 -17 -27 -41 -33 -55 -6 -14 -15 -32 -19 -40 -32 -56 -98 -189 -120 -240 -8 -19 -21 -48 -28 -63 -8 -16 -14 -35 -14 -42 0 -7 -6 -26 -14 -42 -13 -26 -22 -49 -56 -143 -6 -19 -15 -52 -20 -72 -4 -21 -12 -43 -17 -50 -6 -7 -13 -26 -16 -43 -3 -16 -11 -52 -17 -80 -11 -46 -17 -72 -50 -210 -7 -27 -16 -81 -20 -120 -5 -38 -14 -110 -20 -160 l-12 -90 5 -160 c6 -200 26 -349 69 -525 6 -25 14 -65 18 -90 4 -25 13 -60 19 -77 28 -82 33 -100 41 -133 4 -19 14 -51 20 -70 21 -58 39 -108 56 -152 9 -24 23 -61 31 -83 9 -22 22 -56 31 -75 8 -19 20 -48 27 -65 28 -70 133 -298 155 -335 5 -8 11 -22 14 -30 3 -8 22 -42 41 -75 19 -33 46 -82 60 -110 14 -27 34 -63 45 -80 11 -16 26 -43 34 -60 22 -45 69 -122 178 -293 30 -47 47 -76 57 -99 6 -13 15 -23 21 -23 5 0 10 -5 10 -11 0 -6 13 -28 30 -49 16 -21 30 -41 30 -45 0 -4 14 -24 30 -45 17 -21 30 -41 30 -45 0 -3 20 -33 45 -65 25 -32 45 -61 45 -64 0 -7 240 -328 255 -341 7 -5 23 -26 36 -45 13 -19 34 -46 46 -60 13 -14 23 -28 23 -31 0 -7 107 -145 157 -204 14 -16 53 -62 87 -101 34 -39 79 -93 101 -119 80 -97 117 -141 168 -200 74 -85 218 -245 247 -276 14 -14 63 -68 110 -119 47 -52 116 -128 154 -169 115 -125 860 -869 970 -969 57 -51 134 -123 172 -159 38 -36 116 -109 174 -161 58 -53 139 -127 181 -166 107 -101 219 -200 254 -227 17 -13 79 -68 140 -122 141 -128 637 -545 787 -661 35 -27 86 -70 115 -95 28 -25 91 -77 139 -116 48 -38 104 -85 124 -103 44 -38 47 -38 81 -9 14 12 84 69 155 126 71 57 131 107 134 110 3 4 34 29 70 56 36 27 70 54 75 60 6 7 30 27 55 45 42 32 81 65 119 101 9 8 36 30 61 49 43 33 81 65 119 101 9 8 36 30 61 49 25 19 77 62 116 95 39 33 87 74 107 90 19 17 62 55 94 85 32 30 79 70 103 89 25 19 50 39 55 45 6 6 46 42 90 80 62 54 249 225 329 302 6 5 48 42 93 82 45 39 110 99 145 133 35 34 110 105 168 158 272 249 1055 1049 1249 1275 23 27 48 54 54 61 32 32 152 168 171 193 11 15 38 46 58 68 20 21 47 53 59 69 26 34 138 165 155 180 6 6 26 30 44 55 19 25 45 56 57 70 64 71 83 94 83 101 0 5 15 25 33 45 17 21 46 56 62 80 17 23 98 132 181 241 125 165 255 348 299 421 6 9 22 33 38 53 15 20 27 39 27 42 0 3 19 34 43 69 24 35 46 70 50 78 4 8 16 29 27 45 11 17 23 37 27 45 4 8 18 31 31 50 13 19 28 44 33 55 5 11 18 34 29 50 10 17 31 53 45 80 14 28 42 77 60 110 19 33 46 83 60 110 14 28 30 57 35 65 4 8 22 45 39 83 71 155 93 204 106 235 8 18 21 47 28 65 19 42 38 93 89 232 32 85 40 111 45 135 2 14 9 34 14 45 11 24 37 116 48 170 5 22 13 60 19 85 6 25 18 75 26 112 9 36 16 81 16 100 0 18 7 69 15 113 l14 80 1 195 0 195 -14 80 c-14 75 -25 133 -45 230 -4 22 -13 60 -20 85 -31 115 -43 157 -53 185 -5 17 -14 48 -19 70 -6 22 -14 44 -20 50 -5 5 -9 19 -9 32 0 12 -7 39 -16 60 -32 76 -42 99 -59 143 -28 72 -123 273 -155 330 -5 8 -11 22 -14 30 -4 8 -15 29 -26 45 -11 17 -23 37 -27 45 -4 8 -26 43 -50 78 -24 35 -43 65 -43 68 0 3 -40 58 -89 122 -192 255 -443 490 -679 638 -35 21 -75 47 -90 56 -15 10 -49 29 -77 43 -46 24 -65 34 -105 57 -8 4 -22 11 -30 14 -8 3 -30 12 -47 20 -40 18 -92 40 -135 58 -18 8 -50 21 -71 30 -21 9 -48 16 -60 16 -12 0 -31 7 -41 15 -11 8 -31 15 -45 15 -14 1 -37 7 -51 15 -14 8 -38 14 -55 15 -16 0 -47 6 -70 14 -43 15 -176 39 -316 56 -110 13 -408 13 -518 0 -135 -17 -271 -40 -327 -56 -28 -8 -61 -14 -73 -14 -12 0 -31 -5 -42 -10 -10 -6 -38 -15 -61 -20 -77 -16 -218 -62 -250 -80 -10 -6 -25 -10 -34 -10 -9 0 -28 -6 -42 -14 -15 -8 -58 -28 -97 -46 -38 -17 -77 -36 -85 -40 -8 -5 -37 -21 -65 -35 -27 -14 -63 -34 -80 -45 -16 -11 -39 -24 -50 -30 -39 -21 -61 -35 -111 -72 -28 -21 -72 -52 -97 -70 -141 -100 -308 -252 -488 -444 -92 -98 -305 -390 -325 -446 -3 -10 -10 -18 -14 -18 -5 0 -13 -12 -19 -27 -7 -16 -28 -57 -47 -93 -72 -131 -97 -184 -144 -300 -12 -30 -28 -68 -35 -85 -8 -16 -21 -57 -30 -90 -9 -33 -20 -68 -26 -77 -5 -10 -9 -31 -9 -47 0 -62 -23 -78 -60 -41 l-20 20 0 29 c0 17 -4 32 -9 35 -5 4 -12 24 -16 46 -4 22 -11 42 -16 46 -5 3 -9 14 -9 26 0 11 -6 32 -14 46 -8 15 -22 47 -31 72 -38 98 -98 223 -165 345 -27 50 -53 97 -57 105 -3 8 -19 31 -35 51 -15 20 -28 39 -28 42 0 17 -146 217 -167 230 -7 4 -13 14 -13 21 0 7 -39 55 -87 107 -182 195 -373 369 -493 450 -22 14 -64 44 -94 67 -30 23 -72 51 -93 62 -21 12 -51 30 -68 40 -16 11 -52 31 -80 45 -27 14 -57 30 -65 35 -43 25 -212 100 -227 100 -10 0 -27 7 -37 15 -11 8 -28 15 -38 15 -9 0 -32 6 -50 14 -18 7 -60 21 -93 30 -33 10 -73 22 -90 28 -16 6 -50 14 -75 18 -25 4 -66 12 -92 19 -118 28 -148 33 -233 43 -120 14 -522 18 -610 7z m530 -355 c44 -3 89 -9 100 -14 11 -5 27 -9 35 -8 25 3 114 -14 127 -24 7 -5 17 -7 22 -4 6 4 18 2 28 -3 20 -11 70 -24 93 -26 8 0 29 -8 45 -17 17 -9 53 -19 80 -23 28 -4 66 -17 85 -28 19 -12 43 -22 55 -22 27 -1 318 -146 329 -163 4 -8 31 -24 60 -37 28 -12 60 -32 70 -44 11 -11 25 -21 32 -21 7 0 34 -20 61 -45 26 -25 51 -45 55 -45 9 0 36 -23 75 -62 14 -16 35 -28 45 -28 l18 0 10 -25 c5 -14 18 -28 27 -32 21 -8 153 -137 153 -149 0 -5 27 -38 60 -74 87 -96 90 -99 90 -108 0 -5 11 -19 25 -32 14 -13 25 -29 25 -35 0 -6 11 -21 25 -33 14 -12 25 -29 25 -37 0 -8 14 -29 30 -47 17 -17 30 -37 30 -45 0 -7 7 -16 16 -20 8 -3 37 -52 64 -109 27 -57 54 -104 60 -104 6 0 33 -47 60 -105 28 -58 55 -105 60 -105 5 0 20 -24 34 -54 14 -29 37 -61 51 -70 14 -9 25 -23 25 -32 0 -8 8 -18 17 -21 9 -4 42 -32 74 -62 115 -111 189 -161 189 -126 0 8 -7 15 -15 15 -8 0 -15 7 -15 15 0 21 16 19 40 -5 11 -11 27 -20 36 -20 9 0 18 9 21 20 5 21 15 25 26 13 4 -3 0 -15 -9 -24 l-17 -19 17 -6 c9 -3 23 -3 31 0 l16 6 -11 20 -11 20 16 6 c8 4 21 1 29 -5 l13 -11 16 22 c22 33 74 88 83 88 12 0 64 53 64 64 0 6 9 17 20 24 11 7 20 17 20 23 0 6 14 27 30 46 17 18 30 39 30 46 0 7 13 29 30 48 16 20 51 83 78 140 27 57 61 118 74 134 14 17 38 56 53 88 15 32 38 69 51 82 13 13 24 31 24 40 0 8 11 25 25 37 14 12 25 27 25 33 0 6 11 22 25 35 14 13 25 28 25 34 0 6 9 17 20 24 11 7 20 17 20 24 0 19 320 360 346 369 11 4 62 45 131 107 14 12 32 22 39 22 8 0 19 9 26 20 7 11 18 20 25 20 6 0 18 8 25 18 7 10 39 30 71 45 31 14 57 30 57 35 0 12 364 192 388 192 10 0 26 6 37 14 11 7 34 16 50 18 31 6 88 25 117 39 10 5 24 6 32 3 8 -3 17 -1 21 5 3 6 19 11 35 11 16 0 32 5 35 11 4 6 14 8 22 5 9 -4 21 -2 27 3 15 11 103 26 142 22 18 -1 35 2 39 8 l6 11 89 0 89 0 6 10 6 10 123 0 c67 0 126 -4 131 -9 10 -9 156 -21 247 -20 25 0 49 -5 53 -11 3 -5 20 -10 37 -10 33 0 79 -12 135 -36 18 -7 39 -11 47 -8 8 3 17 1 21 -5 3 -6 16 -11 28 -11 12 0 44 -11 70 -25 26 -14 51 -24 56 -21 4 3 41 -13 82 -34 41 -22 84 -40 96 -40 12 0 34 -11 50 -24 16 -13 62 -40 103 -60 41 -20 83 -45 95 -56 11 -10 37 -26 58 -35 35 -14 51 -26 102 -75 12 -11 26 -20 33 -20 13 0 29 -15 213 -197 136 -134 159 -159 159 -170 0 -5 20 -30 45 -58 25 -27 45 -54 45 -61 0 -6 9 -19 20 -29 12 -10 29 -38 40 -62 10 -24 26 -46 34 -49 8 -3 20 -21 26 -40 7 -19 22 -47 35 -62 12 -15 26 -42 30 -60 4 -18 13 -36 21 -39 16 -6 84 -143 84 -171 1 -9 14 -42 30 -72 17 -30 30 -64 30 -75 0 -11 9 -35 20 -53 11 -18 18 -37 15 -42 -3 -5 2 -24 12 -42 9 -18 18 -42 19 -53 2 -21 20 -77 35 -107 5 -10 9 -29 9 -42 0 -14 5 -28 11 -31 6 -4 8 -13 5 -20 -4 -12 4 -46 25 -100 4 -11 8 -27 8 -35 0 -8 5 -42 11 -75 16 -85 20 -130 26 -298 l6 -148 -12 -14 -11 -14 1 -63 c3 -75 -9 -178 -22 -194 -4 -6 -6 -18 -2 -27 3 -8 1 -18 -5 -22 -6 -3 -11 -26 -11 -50 0 -24 -5 -47 -11 -50 -6 -4 -8 -13 -5 -21 3 -8 2 -22 -3 -32 -5 -9 -14 -37 -21 -62 -7 -25 -18 -60 -26 -78 -8 -18 -12 -37 -9 -42 3 -5 -4 -24 -16 -44 -11 -19 -18 -40 -15 -45 4 -5 -3 -25 -15 -45 -11 -19 -18 -40 -15 -45 4 -5 -3 -25 -15 -45 -11 -19 -18 -40 -15 -45 3 -5 -10 -38 -29 -74 -19 -36 -35 -73 -35 -83 0 -24 -248 -524 -260 -524 -6 0 -28 -39 -51 -86 -23 -48 -50 -95 -61 -106 -11 -11 -27 -38 -37 -61 -10 -23 -29 -56 -43 -72 -14 -17 -35 -51 -46 -77 -11 -27 -25 -48 -31 -48 -6 0 -19 -19 -29 -42 -11 -24 -29 -52 -41 -62 -11 -11 -21 -25 -21 -32 0 -7 -13 -29 -30 -47 -16 -19 -30 -39 -30 -45 0 -5 -7 -13 -15 -16 -9 -3 -23 -23 -32 -43 -8 -21 -24 -44 -34 -51 -10 -7 -19 -19 -19 -26 0 -7 -11 -23 -25 -36 -14 -13 -25 -29 -25 -36 0 -7 -18 -32 -41 -56 -23 -23 -46 -55 -51 -71 -6 -15 -19 -32 -29 -38 -10 -5 -19 -16 -19 -23 0 -7 -10 -24 -22 -38 -67 -75 -103 -121 -114 -146 -7 -15 -26 -38 -43 -51 -17 -13 -31 -29 -31 -37 0 -8 -17 -31 -37 -53 -50 -51 -117 -130 -123 -145 -6 -15 -18 -28 -92 -108 -32 -34 -58 -66 -58 -71 0 -5 -14 -24 -31 -41 -69 -70 -149 -161 -149 -170 0 -9 -4 -14 -150 -164 -49 -52 -90 -98 -90 -104 0 -6 -40 -52 -90 -102 -302 -307 -505 -519 -508 -532 -2 -8 -15 -19 -28 -24 -13 -5 -29 -21 -34 -34 -5 -13 -16 -26 -24 -28 -13 -3 -295 -274 -620 -595 -48 -48 -94 -90 -101 -93 -14 -5 -152 -132 -258 -236 -34 -34 -67 -63 -73 -65 -16 -5 -122 -100 -198 -176 -35 -35 -67 -63 -73 -63 -8 0 -95 -75 -167 -146 -16 -16 -35 -31 -42 -34 -18 -7 -99 -77 -153 -131 -25 -25 -51 -48 -57 -50 -14 -5 -96 -73 -138 -115 -17 -17 -36 -33 -42 -35 -15 -5 -98 -75 -139 -116 -18 -18 -36 -33 -40 -33 -7 0 -48 -32 -98 -75 -10 -9 -29 -20 -42 -25 -14 -5 -25 -14 -25 -20 0 -20 -103 -60 -155 -60 -56 0 -141 34 -156 61 -5 11 -16 19 -24 19 -14 0 -36 17 -113 87 -26 24 -51 43 -56 43 -5 0 -23 15 -41 33 -41 41 -124 111 -139 116 -6 2 -25 18 -42 35 -41 41 -123 110 -139 116 -12 5 -19 11 -148 132 -43 40 -84 75 -90 77 -7 2 -26 18 -43 35 -52 51 -156 141 -168 145 -6 2 -39 32 -73 65 -95 94 -213 200 -228 206 -7 3 -46 38 -86 78 -124 121 -260 247 -272 251 -7 2 -87 80 -180 173 -92 92 -172 168 -177 168 -6 0 -15 11 -20 25 -5 14 -16 28 -25 31 -16 7 -275 262 -275 272 0 3 -63 67 -140 142 -77 75 -140 141 -140 147 0 5 -25 35 -55 66 -30 31 -55 59 -55 64 0 5 -9 16 -20 26 -11 9 -20 23 -20 30 0 8 -20 32 -45 55 -25 22 -45 48 -45 57 0 16 -178 199 -312 323 -32 29 -58 56 -58 59 0 4 -30 37 -67 74 -98 97 -133 135 -133 143 0 13 -112 147 -131 157 -11 5 -19 16 -19 23 0 7 -11 23 -25 36 -14 13 -25 29 -25 35 0 7 -13 23 -29 36 -15 13 -36 39 -45 57 -9 18 -24 36 -32 39 -7 3 -14 11 -14 17 0 7 -11 22 -25 34 -14 12 -25 29 -25 37 0 8 -9 20 -20 27 -11 7 -20 18 -20 25 0 7 -9 18 -20 25 -11 7 -20 18 -20 24 0 6 -11 21 -25 34 -14 13 -25 29 -25 36 0 7 -9 19 -20 27 -10 7 -24 25 -29 40 -6 15 -15 27 -21 27 -5 0 -18 15 -27 34 -29 53 -72 116 -82 116 -5 0 -14 14 -20 30 -5 17 -15 30 -21 30 -6 0 -20 20 -31 45 -11 25 -24 45 -30 45 -6 0 -19 20 -30 45 -11 25 -24 45 -30 45 -6 0 -20 21 -31 48 -12 26 -34 63 -49 82 -16 19 -29 40 -29 46 0 6 -9 19 -19 29 -11 9 -38 55 -60 101 -23 46 -45 84 -51 84 -5 0 -45 74 -88 163 l-80 164 -16 6 c-9 4 -16 15 -16 25 0 11 -7 25 -15 32 -8 7 -15 24 -15 37 0 14 -27 77 -60 140 -33 64 -60 125 -60 135 0 10 -11 41 -25 68 -14 27 -25 56 -25 65 0 8 -9 32 -20 52 -11 21 -20 45 -20 54 0 9 -7 30 -15 45 -8 16 -15 39 -15 51 0 12 -4 24 -9 27 -4 3 -11 28 -15 56 -4 28 -13 65 -20 83 -24 56 -66 256 -66 314 0 16 -3 33 -7 37 -29 29 -15 621 17 691 5 11 12 48 15 83 4 34 11 64 15 67 4 3 11 28 15 57 4 29 11 59 15 68 14 29 32 85 34 105 1 11 9 34 19 52 9 18 17 40 17 50 0 10 7 31 15 47 8 15 15 35 15 43 0 21 221 463 232 463 4 0 15 18 24 40 9 22 25 45 35 51 11 5 19 16 19 24 0 9 11 25 25 37 14 12 25 27 25 33 0 6 11 22 25 35 14 13 25 28 25 33 0 14 6 20 172 184 201 200 204 203 214 203 5 0 28 18 50 40 23 22 58 47 78 55 20 8 36 20 36 25 0 6 34 26 75 45 41 18 75 38 75 44 0 14 159 91 176 84 l14 -5 6 16 c3 9 15 16 26 16 10 0 40 11 66 25 26 14 56 25 67 25 11 0 29 7 39 15 11 8 32 15 46 15 15 0 30 3 34 8 4 4 17 8 29 9 12 1 51 9 87 18 36 9 76 19 90 22 14 3 30 10 36 14 6 5 25 6 41 3 l31 -6 6 11 7 11 57 1 c31 1 67 4 80 7 25 8 318 5 447 -4z"/> <path d="M9240 10542 c-35 -2 -70 -8 -77 -14 l-13 -10 -33 6 -34 6 -26 -20 c-15 -12 -32 -18 -38 -15 l-11 7 -26 -25 c-15 -14 -37 -28 -49 -32 -13 -3 -23 -13 -23 -21 0 -8 -11 -19 -24 -24 -14 -5 -33 -22 -43 -37 -10 -15 -31 -41 -47 -58 -42 -44 -66 -87 -66 -115 0 -15 -5 -31 -12 -38 l-12 -12 -4 -197 c-2 -109 -8 -203 -13 -209 l-9 -11 0 -1038 c0 -571 -2 -1040 -5 -1043 -3 -3 -5 -35 -5 -71 0 -36 -6 -77 -13 -91 l-13 -25 -39 4 c-22 2 -49 4 -60 5 -12 1 -33 9 -49 19 -15 10 -34 16 -43 13 l-15 -6 -25 20 -26 20 -34 -6 -33 -6 -14 11 -14 12 -502 0 -501 0 -14 -11 c-8 -6 -24 -10 -37 -9 -36 4 -88 -10 -154 -42 l-62 -29 -15 6 -15 6 -12 -22 -11 -21 -27 28 c-15 15 -25 34 -24 41 2 8 -4 22 -13 32 l-16 17 0 49 c-3 363 -11 732 -16 744 -3 8 -8 24 -9 35 -8 64 -33 126 -66 160 -11 11 -51 53 -88 93 l-69 72 -76 40 -77 40 -32 0 c-18 0 -35 2 -38 5 -8 8 -1051 7 -1084 -1 -16 -4 -34 -11 -41 -16 -7 -5 -16 -7 -21 -4 -4 2 -32 -7 -62 -21 l-53 -25 -74 -74 c-40 -40 -73 -78 -73 -84 0 -5 -11 -20 -25 -32 -14 -12 -33 -45 -42 -72 l-17 -51 -4 -745 -3 -745 10 -20 c5 -11 15 -49 21 -85 7 -36 19 -81 27 -100 18 -44 24 -65 30 -114 l5 -38 -22 -45 c-12 -24 -32 -54 -44 -67 -13 -12 -25 -26 -27 -32 -5 -11 -109 -94 -119 -94 -4 0 -15 -21 -25 -47 l-18 -46 -53 -54 -54 -53 -21 0 c-21 0 -79 -50 -79 -69 0 -19 21 -23 34 -5 l13 17 7 -11 c10 -17 -1 -30 -39 -46 l-33 -14 -17 -36 c-10 -20 -21 -36 -26 -36 -13 0 -77 -134 -85 -176 -3 -19 -10 -37 -15 -40 -5 -3 -9 -37 -9 -75 l0 -70 15 -29 c8 -16 12 -36 9 -44 l-6 -16 16 -6 c9 -3 16 -16 16 -28 0 -11 11 -31 25 -44 l24 -24 12 7 11 7 47 -51 48 -52 74 6 74 6 70 34 70 34 25 32 c14 17 33 40 42 50 9 9 21 26 27 37 l10 19 23 -4 23 -4 35 30 c19 17 43 37 53 46 9 8 21 15 25 15 5 0 19 11 32 25 13 14 28 25 33 25 11 0 67 56 67 67 0 11 163 173 173 173 10 0 67 56 67 65 0 3 36 42 80 85 l81 80 19 0 19 0 3 22 3 23 48 8 48 8 34 -17 c19 -9 35 -20 35 -25 0 -5 12 -15 28 -23 35 -19 132 -110 132 -124 0 -5 34 -45 75 -89 95 -99 105 -111 105 -121 0 -5 44 -54 98 -108 101 -104 135 -147 137 -177 2 -20 0 -18 79 -82 33 -26 69 -59 80 -72 12 -14 32 -36 45 -49 26 -26 43 -53 63 -96 7 -16 17 -28 23 -28 15 0 105 -91 105 -106 0 -3 17 -27 38 -53 21 -25 42 -54 45 -63 l6 -18 21 0 c11 0 20 -4 20 -9 0 -5 43 -53 95 -105 52 -53 95 -101 95 -106 0 -6 14 -16 30 -21 17 -6 30 -15 30 -20 0 -5 20 -18 45 -29 25 -11 45 -24 45 -30 0 -12 72 -46 120 -56 109 -23 243 5 297 63 12 12 30 23 40 23 10 0 36 14 57 30 22 17 46 30 53 30 7 0 13 4 13 9 0 13 146 161 158 161 6 0 17 8 24 18 7 10 25 27 41 36 15 10 27 22 27 27 0 13 393 404 414 412 10 4 20 16 23 27 3 11 11 20 17 20 15 0 131 119 139 143 4 9 12 17 19 17 6 0 25 12 40 27 l28 27 0 27 c0 32 16 47 33 30 17 -17 27 -13 27 9 l0 21 19 7 c28 10 185 166 172 170 -6 2 -11 12 -11 23 l0 19 19 0 c11 0 21 -5 23 -10 2 -6 51 37 110 96 l108 107 -12 14 -11 14 11 11 11 11 13 -11 13 -11 107 103 107 103 -5 35 -6 35 11 7 10 7 7 -26 c9 -36 9 -36 123 79 l104 105 -13 16 -14 17 15 9 14 9 9 -14 9 -13 103 103 c56 57 107 104 114 104 l13 0 -18 20 -19 20 12 12 12 12 20 -19 20 -18 0 12 c0 7 45 57 99 111 l99 99 -5 22 -6 22 23 -6 23 -6 61 63 c33 35 69 66 79 69 9 4 20 15 24 24 3 10 15 25 26 35 l21 16 -12 14 c-13 16 -7 28 15 28 7 0 13 -7 13 -16 l0 -16 15 12 c8 7 15 18 15 26 0 7 10 19 23 25 12 6 122 112 244 235 122 123 225 224 230 224 4 0 61 51 125 114 64 62 130 119 147 126 16 6 32 18 35 25 l5 14 31 -1 c17 -1 36 4 42 10 16 16 28 15 28 -3 l0 -15 19 0 c11 0 23 5 26 10 11 18 25 10 25 -14 0 -14 5 -28 10 -31 l10 -6 0 15 0 16 20 0 20 0 0 -20 0 -20 23 0 c13 0 28 -5 33 -10 l10 -10 19 20 c10 11 28 20 40 20 l23 0 5 -20 c3 -11 12 -20 21 -20 8 0 20 9 26 20 6 11 20 20 30 20 l20 0 0 20 0 20 24 11 24 11 6 29 6 29 15 0 15 0 0 25 c0 28 15 33 28 10 l8 -16 31 38 c37 47 63 96 63 120 0 10 13 43 30 73 16 30 29 67 30 81 0 14 7 34 15 45 8 10 15 28 15 39 0 11 11 42 25 68 14 26 23 52 20 57 -3 5 4 25 15 45 11 20 18 40 15 45 -3 5 -2 17 3 27 26 51 54 150 56 195 0 20 4 40 9 44 4 4 7 38 7 76 0 62 -5 81 -32 128 -4 8 -17 33 -28 55 -26 54 -44 75 -64 75 l-16 0 0 20 c0 11 5 20 10 20 6 0 10 5 10 11 l0 11 -15 -12 -16 -13 -27 26 c-15 14 -58 42 -96 61 l-68 35 -28 -5 -28 -6 -6 11 c-9 14 -93 14 -102 0 l-7 -11 -53 6 -53 6 -6 -10 c-3 -5 -24 -10 -45 -10 -21 0 -42 -5 -46 -11 l-6 -11 -33 6 -33 7 -28 -12 c-16 -6 -38 -15 -49 -19 -11 -5 -27 -9 -35 -9 -8 0 -30 -4 -48 -7 l-33 -6 13 -16 13 -15 -27 6 c-16 4 -40 10 -54 13 l-25 7 -27 -13 c-15 -7 -35 -16 -45 -22 -10 -5 -22 -6 -27 -3 -5 3 -53 -17 -106 -45 -54 -27 -102 -50 -107 -50 -6 0 -29 -20 -53 -45 l-42 -45 -26 0 c-29 0 -33 -8 -11 -24 l15 -11 -9 -13 -8 -13 -61 0 c-34 0 -66 2 -72 6 l-11 7 6 30 7 29 -17 18 -16 19 0 43 c0 24 -4 204 -8 399 l-8 355 -13 39 c-6 22 -30 74 -52 115 -22 42 -42 89 -43 106 -4 46 -4 47 -14 41 -4 -3 -6 -16 -4 -30 l5 -24 -12 -7 -11 -7 -25 23 c-13 12 -24 31 -24 41 l0 18 -37 23 c-21 13 -66 38 -101 55 l-63 32 -25 -6 -24 -6 -15 12 -14 12 -438 1 c-241 1 -467 1 -503 -1z m1160 -282 c0 -8 0 -484 0 -1057 l0 -1041 -126 -124 c-274 -269 -1203 -1196 -1248 -1246 -26 -29 -52 -52 -58 -50 l-10 4 1 1759 c1 968 1 1762 1 1765 0 3 324 5 720 5 l720 0 0 -15z m1688 -941 l32 -30 0 -55 0 -55 -18 -47 c-25 -63 -42 -111 -52 -147 -8 -28 -16 -53 -45 -135 -7 -19 -21 -62 -30 -95 -10 -33 -24 -74 -32 -92 -7 -17 -13 -36 -13 -43 0 -15 -27 -102 -46 -148 -8 -18 -14 -44 -14 -57 0 -13 -4 -26 -9 -29 -5 -3 -12 -23 -16 -43 -9 -49 -31 -90 -63 -119 l-27 -23 -42 -1 -41 0 -37 43 -36 42 4 40 c4 38 20 90 39 128 5 10 20 55 35 100 14 45 30 86 34 91 5 6 9 19 9 31 0 12 7 30 15 41 8 10 15 28 15 40 0 11 7 29 15 40 14 19 20 56 10 66 -3 3 -324 -313 -713 -701 -597 -594 -1162 -1152 -1833 -1811 -71 -69 -466 -460 -879 -870 -414 -410 -759 -748 -768 -752 -70 -28 -112 -9 -193 89 -35 43 -73 89 -84 102 -11 14 -34 38 -51 55 -16 17 -68 76 -113 131 -46 55 -87 102 -90 105 -4 3 -49 55 -101 115 -51 61 -105 121 -119 135 -14 14 -51 57 -82 95 -31 39 -72 87 -92 108 -20 20 -53 58 -74 84 -21 26 -45 54 -53 63 -34 37 -139 157 -166 190 -16 19 -31 37 -34 40 -3 3 -50 57 -105 120 -55 63 -104 120 -110 126 -42 46 -126 145 -155 184 -19 26 -56 69 -82 96 l-48 50 -544 -545 c-299 -300 -564 -568 -588 -596 -68 -77 -77 -85 -99 -85 l-22 0 7 43 c4 23 9 94 11 158 l4 115 423 421 c233 232 501 498 596 592 l172 171 48 0 48 0 50 -52 c27 -29 66 -73 86 -98 20 -25 49 -59 64 -77 74 -81 141 -158 159 -183 11 -14 36 -44 56 -66 20 -21 76 -84 124 -139 48 -55 91 -102 94 -105 3 -3 24 -27 46 -55 22 -27 50 -61 62 -75 12 -14 33 -38 48 -55 14 -16 58 -68 98 -115 40 -47 83 -97 97 -111 32 -34 62 -69 124 -144 27 -33 54 -64 60 -70 7 -5 38 -41 70 -80 33 -38 85 -99 117 -135 31 -36 76 -87 99 -115 46 -55 130 -153 171 -199 l25 -29 414 409 c227 225 585 580 795 789 211 209 576 569 811 800 235 231 664 655 953 942 750 744 1081 1066 1114 1085 10 5 17 16 17 23 l0 15 -37 0 c-20 0 -59 -6 -87 -14 -28 -8 -78 -20 -111 -26 -33 -6 -91 -18 -130 -26 -260 -53 -282 -51 -321 32 l-16 33 13 35 c7 20 25 47 39 60 l25 25 70 10 c39 6 103 16 144 21 41 6 82 15 92 20 10 6 34 10 54 10 20 0 64 6 98 14 34 8 94 19 132 25 39 6 104 17 145 26 41 9 103 20 138 25 34 5 70 14 80 19 9 6 33 11 52 11 l35 0 33 -31z m-1328 -411 l0 -23 20 25 c22 29 30 24 39 -22 l7 -33 22 -3 22 -3 0 -15 c0 -8 -7 -17 -15 -20 -8 -4 -15 -13 -15 -21 l0 -15 28 4 c15 3 36 8 47 13 l20 7 -10 -9 c-5 -4 -21 -30 -35 -58 l-26 -50 -19 0 -20 0 -1 -21 c-1 -12 -4 -27 -8 -33 l-8 -12 -35 7 c-20 4 -45 16 -56 27 l-20 20 0 108 1 107 19 20 c10 11 24 21 31 21 l12 1 0 -22z m-4155 -398 l10 0 -3 -762 c-2 -420 1 -887 6 -1038 11 -343 12 -337 -67 -239 -47 58 -122 146 -158 186 -13 13 -23 27 -23 31 0 4 -17 25 -38 47 -34 38 -95 107 -226 260 -28 33 -78 87 -112 121 l-61 62 -42 12 -43 11 -41 -7 c-23 -3 -57 -17 -77 -29 -40 -26 -412 -400 -528 -531 -8 -8 -21 -13 -30 -11 l-17 3 5 15 c3 8 6 428 8 934 1 506 4 925 6 930 l3 10 709 -2 c390 -1 714 -2 719 -3z m1898 -1240 c4 0 7 -218 7 -484 l0 -484 -480 -479 c-264 -263 -486 -479 -492 -481 -7 -1 -23 13 -36 31 -12 19 -35 48 -50 65 -90 102 -128 147 -136 161 -5 9 -23 30 -40 47 -34 35 -71 76 -131 149 -22 26 -47 55 -57 64 l-16 16 -2 690 c-1 380 -2 695 -1 700 l1 10 712 -2 c392 -1 716 -3 721 -3z"/> </g> </svg>